<?xml version="1.0" standalone="no"?>
<!DOCTYPE svg PUBLIC "-//W3C//DTD SVG 20010904//EN"
 "http://www.w3.org/TR/2001/REC-SVG-20010904/DTD/svg10.dtd">
<svg version="1.0" xmlns="http://www.w3.org/2000/svg"
 width="307.000000pt" height="388.000000pt" viewBox="0 0 307.000000 388.000000"
 preserveAspectRatio="xMidYMid meet">

<g transform="translate(0.000000,388.000000) scale(0.100000,-0.100000)"
fill="#000000" stroke="none">
<path d="M1097 3813 c-25 -4 -27 -7 -25 -46 l3 -42 -52 -3 -53 -3 0 -45 0 -44
-50 0 -50 0 0 -46 0 -45 -42 3 -43 3 0 -42 c-1 -50 -3 -52 -41 -55 -43 -3 -54
-16 -54 -64 l0 -43 -42 -3 -43 -3 0 -90 0 -90 -40 -5 -40 -5 -5 -315 c-3 -173
-7 -319 -9 -325 -9 -27 1 -35 44 -35 l45 0 0 -51 0 -50 -42 3 c-43 3 -43 3
-44 43 0 22 -6 51 -13 63 -7 12 -9 26 -6 31 11 19 -8 41 -36 41 -34 0 -31 21
-34 -277 l-1 -193 25 -1 c14 -1 33 -2 41 -3 8 0 19 4 23 9 5 6 6 -33 3 -85 -4
-52 -3 -100 2 -107 4 -6 25 -13 47 -15 38 -3 40 -5 45 -43 5 -38 7 -40 45 -45
l40 -5 -3 -137 c-3 -110 -1 -138 10 -140 7 -1 29 -2 48 -2 l35 -1 0 -120 0
-120 -44 3 -43 4 4 -66 4 -66 -41 0 c-22 0 -64 -3 -92 -6 l-53 -7 0 -48 0 -48
-47 -3 -48 -3 -3 -44 -3 -44 93 8 c51 3 112 10 135 14 49 10 53 4 53 -68 0
-31 4 -48 13 -49 6 0 21 -3 32 -6 11 -2 23 -5 28 -5 4 -1 7 -19 7 -41 l0 -40
45 0 45 0 0 -40 c0 -22 0 -43 0 -47 0 -5 -17 -7 -38 -6 -189 7 -471 -3 -487
-18 -5 -6 -1 -9 10 -9 16 0 17 -2 6 -9 -20 -13 -6 -41 21 -42 13 -1 6 -5 -17
-10 -29 -5 -14 -7 54 -6 l94 2 1 -48 1 -49 193 2 c197 1 252 6 252 21 0 5 9 9
20 9 23 0 26 10 8 28 -9 9 -8 12 4 12 9 0 19 6 21 13 4 9 8 8 16 -3 10 -13 11
-13 12 0 3 35 17 -51 18 -112 l1 -68 44 0 44 0 7 -79 c5 -62 10 -78 21 -74 8
3 14 13 14 23 0 22 28 46 40 34 4 -5 10 -22 12 -39 3 -28 6 -30 50 -33 42 -3
47 -6 50 -30 l3 -27 142 -3 142 -3 3 33 c3 32 4 32 51 29 l47 -3 0 40 c0 38 2
40 38 46 20 3 80 6 132 6 52 0 102 5 110 10 11 8 7 9 -15 5 -27 -5 -26 -4 7
11 21 9 35 20 32 25 -3 5 2 9 10 9 9 0 13 -6 10 -14 -7 -17 50 -31 91 -24 13
3 22 1 19 -3 -3 -5 -24 -9 -47 -9 l-42 0 3 -49 4 -49 41 -4 c23 -1 62 -1 87 2
45 5 45 5 42 41 l-3 36 77 6 c42 4 97 7 122 7 35 0 43 3 38 15 -3 9 0 15 9 15
7 0 15 10 17 23 3 21 10 23 111 31 l107 9 0 43 0 44 55 0 55 0 0 51 0 52 44
-5 43 -5 7 66 c11 117 13 111 -44 111 -33 0 -50 -4 -50 -12 0 -10 -3 -9 -9 1
-5 7 -5 29 0 50 14 60 13 61 -41 61 -35 0 -52 -4 -56 -15 -5 -13 -8 -13 -21 0
-8 9 -19 13 -24 10 -5 -4 -9 -2 -9 4 0 5 10 11 23 13 18 2 23 10 25 46 l3 42
-95 0 -96 0 0 -44 0 -45 53 -3 52 -3 -3 -48 -2 -49 50 4 c29 2 50 -1 51 -7 5
-43 4 -135 -1 -121 -8 23 -53 30 -222 34 l-68 2 0 45 0 45 -95 0 c-78 0 -95 3
-95 15 0 8 -5 15 -11 15 -6 0 -8 9 -3 23 4 12 10 54 13 92 4 48 10 69 19 67 7
-1 12 8 12 20 0 19 2 20 11 8 9 -12 10 -12 5 3 -3 10 -6 21 -6 23 0 2 -8 4
-17 5 -23 1 23 17 54 18 20 1 24 -11 12 -34 -12 -23 -3 -50 18 -53 49 -7 75
34 49 76 -5 8 -2 11 6 10 18 -4 24 82 6 93 -7 5 -49 9 -94 9 l-81 0 1 62 1 63
-47 3 -48 3 0 114 0 114 43 3 42 3 7 135 c4 74 6 160 4 190 l-2 55 54 -3 c29
-2 69 -1 88 2 l34 7 0 97 0 97 48 -3 47 -4 -1 229 c-1 125 -2 231 -3 234 -1 7
-69 19 -129 23 -18 2 -35 6 -39 9 -3 4 -5 175 -5 381 1 206 -2 377 -7 380 -4
3 -26 7 -47 8 l-39 3 3 47 4 47 -44 3 c-42 3 -43 4 -46 43 -4 46 -14 55 -64
55 l-38 0 0 45 0 45 -44 0 -45 0 -3 43 -3 42 -85 5 -85 5 0 44 0 45 -340 2
c-187 0 -352 -1 -368 -3z m433 -228 l5 -40 93 -3 92 -3 0 -59 0 -59 34 3 c18
2 37 5 42 8 5 3 48 9 97 12 94 6 89 9 91 -49 0 -11 5 -23 11 -27 6 -5 6 -8 0
-8 -6 0 -9 -38 -7 -100 l3 -100 90 0 89 0 0 -404 c0 -223 2 -423 6 -445 l7
-41 -53 0 -53 0 5 45 6 45 -189 -3 -189 -2 0 -41 0 -42 -90 -7 -90 -7 0 -95 0
-95 40 7 40 7 0 -51 0 -51 58 -1 c31 -1 74 0 95 1 l37 2 0 -51 0 -51 95 0 95
0 0 51 0 51 45 -6 45 -7 0 50 0 50 43 3 42 3 3 48 3 47 45 0 44 0 0 -95 0 -95
-44 0 -45 0 -3 -52 -3 -53 -43 3 -42 4 2 -44 c1 -24 1 -69 0 -102 l-2 -58 -45
4 -45 3 0 -97 0 -98 -45 0 -45 0 0 -100 0 -100 -95 0 -95 0 0 50 0 51 -157 -6
c-183 -7 -203 -10 -203 -30 0 -8 -4 -15 -9 -15 -5 0 -8 -8 -7 -17 1 -16 -10
-18 -84 -19 -47 -1 -92 -5 -101 -8 -9 -4 -34 -6 -55 -4 l-39 3 3 96 3 95 -48
0 -48 -1 -1 50 c-1 28 -2 71 -3 98 l-1 47 -40 0 c-35 0 -40 3 -40 24 0 13 -3
38 -6 56 -7 30 -9 32 -45 28 -36 -3 -39 -2 -39 22 0 31 17 51 36 43 8 -3 14 0
14 7 0 8 -9 11 -24 8 -30 -6 -36 6 -36 68 l0 44 -45 0 -45 0 0 96 0 95 48 -3
47 -3 0 -45 0 -45 48 -3 47 -3 0 -45 0 -44 45 0 45 0 0 -50 0 -49 95 0 95 0 0
49 0 50 90 0 90 0 0 56 c0 53 1 56 23 51 34 -8 60 6 63 36 3 32 -20 48 -59 41
-25 -4 -26 -2 -29 48 l-3 53 -40 0 c-22 1 -64 2 -92 3 l-53 2 0 45 0 45 -147
0 c-114 0 -144 -3 -135 -12 7 -7 12 -27 12 -45 l0 -34 -60 2 c-59 2 -85 14
-61 29 20 12 31 79 31 202 l0 117 25 -3 c14 -1 28 -6 32 -9 14 -15 23 -6 23
23 0 29 -2 30 -45 30 l-45 0 0 55 0 55 -46 0 c-38 0 -45 3 -40 16 3 9 6 43 7
77 0 38 3 55 8 43 6 -17 9 -17 23 -3 9 9 18 13 22 10 3 -4 6 1 6 10 0 10 5 17
10 17 6 0 10 43 10 110 l0 110 50 0 50 0 0 51 0 51 -43 -3 -44 -4 -2 46 -2 46
36 1 c49 2 55 7 55 52 l0 39 138 3 137 3 -3 48 -4 47 94 1 c51 0 113 4 138 7
42 7 45 9 42 34 -5 41 5 49 56 46 47 -3 47 -3 52 -43z m513 -165 c-4 -14 -1
-20 8 -18 8 2 15 -7 17 -19 4 -27 -6 -30 -24 -5 -15 19 -19 62 -5 62 5 0 7 -9
4 -20z m397 -1000 l0 -50 -45 0 -45 0 1 49 2 49 43 0 44 1 0 -49z m-833 -217
c-3 -10 -5 -4 -5 12 0 17 2 24 5 18 2 -7 2 -21 0 -30z m-367 -84 c0 -39 0 -39
-40 -39 l-40 0 0 43 0 43 40 -4 c39 -4 40 -5 40 -43z m1117 -26 c-2 -16 -4 -3
-4 27 0 30 2 43 4 28 2 -16 2 -40 0 -55z m-1309 24 c3 -32 0 -38 -14 -35 -9 1
-23 20 -30 41 l-13 38 27 -3 c23 -3 27 -8 30 -41z m679 21 c-3 -8 -6 -5 -6 6
-1 11 2 17 5 13 3 -3 4 -12 1 -19z m72 6 c3 -3 -1 -10 -9 -17 -10 -9 -11 -9
-6 1 4 7 1 12 -8 12 -8 0 -18 5 -22 11 -4 8 1 9 17 4 13 -4 26 -9 28 -11z m-9
-54 c0 -5 -2 -10 -4 -10 -3 0 -8 5 -11 10 -3 6 -1 10 4 10 6 0 11 -4 11 -10z
m-808 -772 c2 -21 0 -38 -4 -38 -4 0 -7 24 -7 53 1 54 5 49 11 -15z m278 -141
c14 0 37 3 53 7 26 6 27 5 27 -39 l0 -45 88 0 c48 0 111 3 140 6 l52 7 0 38 0
39 44 0 c25 0 47 -4 50 -9 3 -4 3 -44 -1 -89 l-6 -80 -220 -1 c-121 -1 -223
-4 -228 -6 -10 -7 -19 22 -19 65 l0 38 -40 -5 -40 -6 0 48 0 48 38 -8 c20 -4
48 -8 62 -8z m537 -44 c-3 -10 -5 -2 -5 17 0 19 2 27 5 18 2 -10 2 -26 0 -35z
m-1154 -110 c-7 -2 -19 -2 -25 0 -7 3 -2 5 12 5 14 0 19 -2 13 -5z m504 -199
c-3 -3 -12 -4 -19 -1 -8 3 -5 6 6 6 11 1 17 -2 13 -5z m1080 -36 c-3 -8 -6 -5
-6 6 -1 11 2 17 5 13 3 -3 4 -12 1 -19z m-1139 -100 c5 -21 6 -21 13 -2 7 18
8 17 8 -3 1 -18 -5 -23 -23 -23 -19 0 -24 5 -22 25 1 31 16 33 24 3z m795 -25
c-7 -2 -19 -2 -25 0 -7 3 -2 5 12 5 14 0 19 -2 13 -5z m957 -33 c0 -24 -3 -28
-17 -23 -11 4 -12 8 -5 11 22 7 13 20 -10 15 -22 -4 -22 -4 2 10 14 8 26 15
28 16 1 1 2 -12 2 -29z m-60 10 c0 -5 -5 -10 -11 -10 -5 0 -7 5 -4 10 3 6 8
10 11 10 2 0 4 -4 4 -10z m-63 -40 c-12 -18 -15 -18 -20 -5 -4 8 -19 15 -34
16 -22 0 -18 3 17 12 50 13 59 8 37 -23z m-79 -102 l-3 -32 -90 3 c-49 1 -91
4 -91 4 -1 1 -5 21 -9 45 l-7 42 49 1 c26 0 71 4 98 7 46 7 50 5 53 -15 2 -13
2 -37 0 -55z m-190 -81 l3 -48 -185 3 c-119 2 -186 -1 -186 -7 0 -7 -3 -7 -8
0 -4 6 -20 10 -37 10 -24 0 -31 5 -33 24 -2 12 -1 34 2 47 l6 24 218 -2 217
-3 3 -48z"/>
<path d="M985 3400 c3 -5 8 -10 11 -10 2 0 4 5 4 10 0 6 -5 10 -11 10 -5 0 -7
-4 -4 -10z"/>
<path d="M1060 3293 c0 -28 3 -34 10 -23 8 12 10 12 10 1 0 -9 10 -12 35 -9
39 4 45 -4 45 -63 0 -39 0 -39 38 -38 20 1 29 3 20 6 -19 5 -38 52 -38 94 0
15 -4 31 -10 34 -6 3 -7 -1 -4 -9 3 -9 1 -16 -5 -16 -6 0 -11 6 -11 13 0 9 -2
9 -8 -1 -5 -8 -16 -10 -27 -6 -18 7 -18 8 1 16 14 6 12 7 -9 3 -22 -5 -27 -2
-25 11 2 9 -3 19 -9 21 -9 3 -13 -7 -13 -34z"/>
<path d="M1880 3293 c0 -13 -3 -14 -12 -5 -17 17 -24 15 -25 -5 -1 -12 6 -18
23 -19 19 -2 24 3 24 22 0 13 -2 24 -5 24 -3 0 -5 -8 -5 -17z"/>
<path d="M945 3288 c-2 -7 0 -29 4 -48 l9 -35 1 48 c1 45 -5 60 -14 35z"/>
<path d="M1208 3193 c7 -3 16 -2 19 1 4 3 -2 6 -13 5 -11 0 -14 -3 -6 -6z"/>
<path d="M1250 3116 c0 -44 1 -46 29 -46 49 0 61 9 61 46 0 19 -1 34 -2 35 -2
0 -22 2 -45 5 l-43 6 0 -46z"/>
<path d="M1686 3132 c6 -4 14 -14 17 -22 4 -10 6 -8 6 8 1 15 -5 22 -16 22
-11 0 -14 -3 -7 -8z"/>
<path d="M1352 2995 c0 -16 2 -22 5 -12 2 9 2 23 0 30 -3 6 -5 -1 -5 -18z"/>
<path d="M1225 2350 c3 -5 8 -10 11 -10 2 0 4 5 4 10 0 6 -5 10 -11 10 -5 0
-7 -4 -4 -10z"/>
<path d="M850 1850 c0 -11 5 -20 10 -20 6 0 10 9 10 20 0 11 -4 20 -10 20 -5
0 -10 -9 -10 -20z"/>
<path d="M1298 1782 c-16 -7 -16 -8 3 -20 12 -8 18 -9 14 -3 -3 6 1 11 10 11
9 0 13 5 10 10 -7 11 -13 12 -37 2z"/>
<path d="M1250 1601 l0 -101 45 0 45 0 0 -40 0 -41 93 3 92 3 3 38 c3 35 5 37
38 37 30 0 34 -3 35 -27 l1 -28 8 30 c4 17 8 49 9 73 l1 42 -140 0 -140 0 0
50 c0 45 -2 50 -22 50 -13 0 -33 3 -45 6 -23 6 -23 5 -23 -95z"/>
<path d="M1620 1639 l0 -50 43 3 42 3 3 48 3 47 -46 0 -45 0 0 -51z"/>
<path d="M1240 1148 c0 -4 4 -8 9 -8 6 0 12 4 15 8 3 5 -1 9 -9 9 -8 0 -15 -4
-15 -9z"/>
<path d="M2698 613 c7 -3 16 -2 19 1 4 3 -2 6 -13 5 -11 0 -14 -3 -6 -6z"/>
<path d="M2438 1018 c-2 -6 -2 -24 0 -40 4 -26 7 -28 53 -28 l49 0 0 40 0 40
-49 0 c-29 0 -51 -5 -53 -12z"/>
<path d="M228 883 l-3 -48 -47 -3 -48 -3 0 -45 0 -44 -50 0 -50 0 0 -41 c0
-28 6 -46 17 -55 16 -11 14 -12 -14 -8 -33 5 -33 5 -33 -35 0 -33 3 -40 23
-43 19 -3 22 -8 19 -43 -2 -30 0 -36 7 -25 9 13 11 13 11 -2 0 -16 11 -18 80
-18 l80 0 0 -51 0 -50 88 1 c48 1 93 1 100 1 8 -1 12 -17 12 -46 l0 -45 135 0
135 0 6 -39 6 -40 84 -3 84 -3 0 43 0 42 -45 0 -45 0 0 45 0 45 -135 0 -135 0
0 50 0 49 -97 3 -98 3 1 41 1 42 -60 6 c-33 3 -75 6 -93 6 -23 0 -37 6 -44 20
-6 11 -8 20 -4 20 3 0 1 7 -6 15 -15 18 -35 20 -24 3 4 -7 3 -8 -4 -4 -7 4
-12 11 -12 17 0 14 38 11 43 -3 4 -10 6 -10 6 0 1 8 18 12 51 12 l50 0 0 45 0
45 50 0 50 0 0 50 0 50 50 0 50 0 0 45 0 45 -94 0 -95 0 -3 -47z"/>
<path d="M521 705 c0 -35 1 -37 10 -17 6 15 5 30 -1 40 -7 13 -9 8 -9 -23z"/>
</g>
</svg>
